<svg width="16" xmlns="http://www.w3.org/2000/svg" viewBox="0 0 16 16" height="16" xmlns:xlink="http://www.w3.org/1999/xlink">
<path style="fill:#2a2a2a" d="m 8.0223499,15.58031 a 7.37947,7.42413 0 0 1 0,-14.84826011 7.37947,7.42413 0 1 1 0,14.84826011 z"/>
<path style="fill:#161616" d="M 8,0 C 3.581722,0 0,3.581722 0,8 c 0,4.418278 3.581722,8 8,8 4.418278,0 8,-3.581722 8,-8 C 16,3.581722 12.418278,0 8,0 z m 0,1 c 3.865993,0 7,3.1340068 7,7 0,3.865993 -3.134007,7 -7,7 C 4.1340068,15 1,11.865993 1,8 1,4.1340068 4.1340068,1 8,1 z"/>
<rect width="8" x="4" y="7" height="2" style="fill:#87353d"/>
</svg>
