<svg width="16" xmlns="http://www.w3.org/2000/svg" viewBox="0 0 16 16" height="16" xmlns:xlink="http://www.w3.org/1999/xlink">
<defs>
<linearGradient id="linearGradient3794">
<stop offset="0" style="stop-color:#262626"/>
<stop offset="1" style="stop-color:#393939"/>
</linearGradient>
<linearGradient gradientTransform="matrix(0 1 -1 0 16.15398 -.02235)" id="linearGradient3817" xlink:href="#linearGradient3794" x1=".598" x2="15.446" gradientUnits="userSpaceOnUse"/>
</defs>
<path style="fill:url(#linearGradient3817)" d="m 7.9977997,15.42413 a 7.3794701,7.4241301 0 0 1 0,-14.84825977 7.3794701,7.4241301 0 1 1 0,14.84825977 z"/>
<path style="fill:#1f1f1f" d="M 8,0 C 3.581722,0 0,3.581722 0,8 c 0,4.418278 3.581722,8 8,8 4.418278,0 8,-3.581722 8,-8 C 16,3.581722 12.418278,0 8,0 z m 0,1 c 3.865993,0 7,3.1340068 7,7 0,3.865993 -3.134007,7 -7,7 C 4.1340068,15 1,11.865993 1,8 1,4.1340068 4.1340068,1 8,1 z"/>
<path style="fill:#87353d" d="M 11,8 C 11,9.6568542 9.6568542,11 8,11 6.3431458,11 5,9.6568542 5,8 5,6.3431458 6.3431458,5 8,5 c 1.6568542,0 3,1.3431458 3,3 z"/>
</svg>
