<svg width="16" xmlns="http://www.w3.org/2000/svg" viewBox="0 0 16 16" height="16" xmlns:xlink="http://www.w3.org/1999/xlink">
<defs>
<linearGradient id="linearGradient3794">
<stop offset="0" style="stop-color:#262626"/>
<stop offset="1" style="stop-color:#393939"/>
</linearGradient>
<linearGradient gradientTransform="matrix(0 1 -1 0 16.15618 -.02235)" xlink:href="#linearGradient3794" id="linearGradient3855" x1=".598" gradientUnits="userSpaceOnUse" x2="15.446"/>
</defs>
<path style="fill:url(#linearGradient3855)" d="M 8,15.42413 A 7.3794701,7.4241301 0 1 1 8,0.5758699 7.3794701,7.4241301 0 0 1 8,15.42413 z"/>
<path style="fill:#1f1f1f" d="M 8,0 C 3.581722,0 0,3.581722 0,8 c 0,4.418278 3.581722,8 8,8 4.418278,0 8,-3.581722 8,-8 C 16,3.581722 12.418278,0 8,0 z m 0,1 c 3.865993,0 7,3.1340068 7,7 0,3.865993 -3.134007,7 -7,7 C 4.1340068,15 1,11.865993 1,8 1,4.1340068 4.1340068,1 8,1 z"/>
</svg>
