#define bullet_width 8
#define bullet_height 8
static unsigned char bullet_bits[] = {
   0x00, 0x09, 0x12, 0x24, 0x12, 0x09, 0x00, 0x00 };
